<?xml version="1.0" encoding="UTF-8" standalone="no"?>
<!-- Created with Inkscape (http://www.inkscape.org/) -->

<svg
   xmlns:dc="http://purl.org/dc/elements/1.1/"
   xmlns:cc="http://creativecommons.org/ns#"
   xmlns:rdf="http://www.w3.org/1999/02/22-rdf-syntax-ns#"
   xmlns:svg="http://www.w3.org/2000/svg"
   xmlns="http://www.w3.org/2000/svg"
   xmlns:sodipodi="http://sodipodi.sourceforge.net/DTD/sodipodi-0.dtd"
   xmlns:inkscape="http://www.inkscape.org/namespaces/inkscape"
   width="24"
   height="24"
   id="svg2"
   version="1.1"
   inkscape:version="0.48.0 r9654"
   sodipodi:docname="ring.svg">
  <defs
     id="defs4" />
  <sodipodi:namedview
     id="base"
     pagecolor="#ffffff"
     bordercolor="#666666"
     borderopacity="1.0"
     inkscape:pageopacity="0.0"
     inkscape:pageshadow="2"
     inkscape:zoom="22.333333"
     inkscape:cx="12"
     inkscape:cy="12.00002"
     inkscape:document-units="px"
     inkscape:current-layer="layer1"
     showgrid="false"
     inkscape:window-width="1280"
     inkscape:window-height="735"
     inkscape:window-x="0"
     inkscape:window-y="40"
     inkscape:window-maximized="1"
     fit-margin-top="0"
     fit-margin-left="0"
     fit-margin-right="0"
     fit-margin-bottom="0" />
  <metadata
     id="metadata7">
    <rdf:RDF>
      <cc:Work
         rdf:about="">
        <dc:format>image/svg+xml</dc:format>
        <dc:type
           rdf:resource="http://purl.org/dc/dcmitype/StillImage" />
        <dc:title />
      </cc:Work>
    </rdf:RDF>
  </metadata>
  <g
     inkscape:label="Layer 1"
     inkscape:groupmode="layer"
     id="layer1"
     transform="translate(-2.6424866e-5,-1028.3621)">
    <g
       id="g3015"
       transform="matrix(1.5013123,0,0,1.5,-494.16718,738.96165)">
      <path
         style="fill:#dfdfdf"
         d="m 331.5974,206.47907 c -4.9602,-4.96019 -1.44542,-13.54545 5.54545,-13.54545 4.1111,0 8,3.8889 8,8 0,4.1111 -3.8889,8 -8,8 -1.94837,0 -3.99822,-0.90731 -5.54545,-2.45455 z m 8.97402,-2.11688 c 3.03271,-3.03271 0.83779,-8.42857 -3.42857,-8.42857 -4.26636,0 -6.46128,5.39586 -3.42857,8.42857 0.86428,0.86429 2.40714,1.57143 3.42857,1.57143 1.02143,0 2.56429,-0.70714 3.42857,-1.57143 z"
         id="path3023"
         inkscape:connector-curvature="0" />
      <path
         style="fill:#dfdf00"
         d="m 331.5974,206.47907 c -3.25768,-3.25767 -3.24763,-7.84328 0.0243,-11.11525 2.89645,-2.89645 6.66426,-2.54777 10.15147,0.93944 3.48721,3.48721 3.83589,7.25502 0.93944,10.15146 -3.27197,3.27198 -7.85758,3.28203 -11.11525,0.0243 z m 8.35689,-1.58441 c 2.576,-2.39991 2.80961,-5.19713 0.61713,-7.38961 -2.19248,-2.19248 -4.9897,-1.95887 -7.38961,0.61713 -2.47144,2.65277 -2.57632,4.56018 -0.38397,6.9827 2.15571,2.38203 4.44622,2.31475 7.15645,-0.21022 z"
         id="path3021"
         inkscape:connector-curvature="0" />
      <path
         style="fill:#7f7f00"
         d="m 339.6096,205.94893 c -0.96663,-0.22167 -0.21739,-0.40753 0.96182,-1.58674 0.86429,-0.86428 1.57143,-2.40714 1.57143,-3.42857 0,-4.26636 -5.39586,-6.46128 -8.42857,-3.42857 -1.17921,1.17921 -1.19143,1.07352 -1.12132,0.3322 0.0701,-0.74131 1.42404,-1.76324 1.42404,-1.76324 1.87446,-1.73925 5.67096,-1.45242 7.55442,0.43104 1.88346,1.88346 2.52609,5.84365 0.78685,7.71811 m 0.28458,1.35567 c 1.61057,-0.87279 1.69567,-0.39107 -0.36078,1.35282 -3.24097,2.74837 -7.67139,2.56071 -10.68467,-0.45258 -3.01329,-3.01328 -3.20095,-7.4437 -0.45258,-10.68467 1.74389,-2.05646 1.91828,-2.10296 1.35282,-0.36078 l -1.35693,2.4703 c -0.48704,0.85913 -0.97336,2.24765 -0.98255,3.32515 -0.008,0.9875 1.08924,2.9 2.43924,4.25 2.58751,2.58752 4.93959,2.86671 7.54545,1.45455 z"
         id="path3019"
         inkscape:connector-curvature="0"
         sodipodi:nodetypes="sssszcsssssscccsss" />
      <path
         style="fill:#3f3f00"
         d="m 331.5974,206.47907 c -2.52129,-2.52128 -3.20307,-6.81388 -1.50783,-9.49348 0.59915,-0.94705 0.72667,-0.0358 0.36859,2.63391 -0.44748,3.33617 -0.13969,4.48974 1.68469,6.31412 1.82438,1.82438 2.97795,2.13217 6.31412,1.68469 2.66969,-0.35808 3.58096,-0.23056 2.63391,0.36859 -2.6796,1.69524 -6.9722,1.01346 -9.49348,-1.50783 z m 10.25603,-4.81179 c 0.61103,-3.19639 -2.24785,-6.05527 -5.44424,-5.44424 -1.7184,0.32849 -2.10821,0.15245 -1.34731,-0.60845 0.72198,-0.72198 1.96217,-0.75715 3.80801,-0.10801 3.10575,1.09224 5.33926,5.76074 3.59199,7.50801 -0.7609,0.7609 -0.93694,0.37109 -0.60845,-1.34731 z"
         id="path3017"
         inkscape:connector-curvature="0" />
    </g>
  </g>
</svg>
