<?xml version="1.0" encoding="UTF-8" standalone="no"?>
<!-- Created with Inkscape (http://www.inkscape.org/) -->

<svg
   xmlns:dc="http://purl.org/dc/elements/1.1/"
   xmlns:cc="http://creativecommons.org/ns#"
   xmlns:rdf="http://www.w3.org/1999/02/22-rdf-syntax-ns#"
   xmlns:svg="http://www.w3.org/2000/svg"
   xmlns="http://www.w3.org/2000/svg"
   xmlns:sodipodi="http://sodipodi.sourceforge.net/DTD/sodipodi-0.dtd"
   xmlns:inkscape="http://www.inkscape.org/namespaces/inkscape"
   width="24"
   height="24"
   id="svg2"
   version="1.1"
   inkscape:version="0.48.0 r9654"
   sodipodi:docname="bomb.svg">
  <defs
     id="defs4" />
  <sodipodi:namedview
     id="base"
     pagecolor="#ffffff"
     bordercolor="#666666"
     borderopacity="1.0"
     inkscape:pageopacity="0.0"
     inkscape:pageshadow="2"
     inkscape:zoom="22.333333"
     inkscape:cx="12"
     inkscape:cy="11.999967"
     inkscape:document-units="px"
     inkscape:current-layer="layer1"
     showgrid="false"
     fit-margin-top="0"
     fit-margin-left="0"
     fit-margin-right="0"
     fit-margin-bottom="0"
     inkscape:window-width="1280"
     inkscape:window-height="735"
     inkscape:window-x="0"
     inkscape:window-y="40"
     inkscape:window-maximized="1" />
  <metadata
     id="metadata7">
    <rdf:RDF>
      <cc:Work
         rdf:about="">
        <dc:format>image/svg+xml</dc:format>
        <dc:type
           rdf:resource="http://purl.org/dc/dcmitype/StillImage" />
        <dc:title></dc:title>
      </cc:Work>
    </rdf:RDF>
  </metadata>
  <g
     inkscape:label="Layer 1"
     inkscape:groupmode="layer"
     id="layer1"
     transform="translate(-2.867039e-6,-1028.3622)">
    <g
       id="g3339"
       transform="matrix(1.4858734,0,0,1.4944715,0.11301186,-520.33781)">
      <path
         style="fill:#dfdfdf"
         d="m 6.3341693,1051.2192 c -1.9285784,-1.5079 -3.853737,-3.456 -5.2471957,-5.3098 l -1.1630292,-1.5472 1.1630292,-1.5472 c 1.4800808,-1.969 3.3968276,-3.8857 5.3658197,-5.3658 l 1.5472095,-1.1631 1.5472095,1.1631 c 0.8509657,0.6396 2.1447157,1.7605 2.8749997,2.4908 0.730285,0.7303 1.851154,2.024 2.49082,2.875 l 1.163029,1.5472 -1.163029,1.5472 c -1.838724,2.4461 -6.2569457,6.5122 -6.9921097,6.4348 -0.094005,-0.01 -0.8080445,-0.5161 -1.586753,-1.125 z"
         id="path3357"
         inkscape:connector-curvature="0" />
      <path
         style="fill:#9fbfdf"
         d="m 6.3341693,1051.2192 c -1.9285784,-1.5079 -3.853737,-3.456 -5.2471957,-5.3098 l -1.1630292,-1.5472 1.1630292,-1.5472 c 1.4800808,-1.969 3.3968276,-3.8857 5.3658197,-5.3658 l 1.5472095,-1.1631 1.5472095,1.1631 c 0.8509657,0.6396 2.1447157,1.7605 2.8749997,2.4908 0.730285,0.7303 1.851154,2.024 2.49082,2.875 l 1.163029,1.5472 -1.163029,1.5472 c -1.838724,2.4461 -6.2569457,6.5122 -6.9921097,6.4348 -0.094005,-0.01 -0.8080445,-0.5161 -1.586753,-1.125 z m -4.8341665,-6.857 c 0,-0.275 -0.225,-0.5 -0.5,-0.5 -0.27499998,0 -0.49999998,0.225 -0.49999998,0.5 0,0.275 0.225,0.5 0.49999998,0.5 0.275,0 0.5,-0.225 0.5,-0.5 z m 14.0000002,0 c 0,-0.275 -0.225,-0.5 -0.5,-0.5 -0.275,0 -0.5,0.225 -0.5,0.5 0,0.275 0.225,0.5 0.5,0.5 0.275,0 0.5,-0.225 0.5,-0.5 z m -7.0000002,-0.5 c 0,-0.275 -0.225,-0.5 -0.5,-0.5 -0.275,0 -0.5,0.225 -0.5,0.5 0,0.275 0.225,0.5 0.5,0.5 0.275,0 0.5,-0.225 0.5,-0.5 z m 0,-3.5 c 0,-0.275 -0.225,-0.5 -0.5,-0.5 -0.275,0 -0.5,0.225 -0.5,0.5 0,0.275 0.225,0.5 0.5,0.5 0.275,0 0.5,-0.225 0.5,-0.5 z m 0,-3 c 0,-0.275 -0.225,-0.5 -0.5,-0.5 -0.275,0 -0.5,0.225 -0.5,0.5 0,0.275 0.225,0.5 0.5,0.5 0.275,0 0.5,-0.225 0.5,-0.5 z"
         id="path3355"
         inkscape:connector-curvature="0" />
      <path
         style="fill:#7f9fbf"
         d="m 6.3341693,1051.2192 c -1.9285784,-1.5079 -3.853737,-3.456 -5.2471957,-5.3098 l -1.1630292,-1.5472 1.1630292,-1.5472 c 1.4800808,-1.969 3.3968276,-3.8857 5.3658197,-5.3658 l 1.5472095,-1.1631 1.5472095,1.1631 c 0.8509657,0.6396 2.1447157,1.7605 2.8749997,2.4908 0.730285,0.7303 1.851154,2.024 2.49082,2.875 l 1.163029,1.5472 -1.163029,1.5472 c -1.838724,2.4461 -6.2569457,6.5122 -6.9921097,6.4348 -0.094005,-0.01 -0.8080445,-0.5161 -1.586753,-1.125 z m -4.8341665,-6.857 c 0,-0.275 -0.225,-0.5 -0.5,-0.5 -0.27499998,0 -0.49999998,0.225 -0.49999998,0.5 0,0.275 0.225,0.5 0.49999998,0.5 0.275,0 0.5,-0.225 0.5,-0.5 z m 14.0000002,0 c 0,-0.275 -0.225,-0.5 -0.5,-0.5 -0.275,0 -0.5,0.225 -0.5,0.5 0,0.275 0.225,0.5 0.5,0.5 0.275,0 0.5,-0.225 0.5,-0.5 z m -7.0000002,-0.5 c 0,-0.275 -0.225,-0.5 -0.5,-0.5 -0.275,0 -0.5,0.225 -0.5,0.5 0,0.275 0.225,0.5 0.5,0.5 0.275,0 0.5,-0.225 0.5,-0.5 z m 0.5,-3.25 c 0,-0.4167 -0.4444445,-0.75 -1,-0.75 -0.5555555,0 -1,0.3333 -1,0.75 0,0.4167 0.4444445,0.75 1,0.75 0.5555555,0 1,-0.3333 1,-0.75 z m -0.5,-3.25 c 0,-0.275 -0.225,-0.5 -0.5,-0.5 -0.275,0 -0.5,0.225 -0.5,0.5 0,0.275 0.225,0.5 0.5,0.5 0.275,0 0.5,-0.225 0.5,-0.5 z"
         id="path3353"
         inkscape:connector-curvature="0" />
      <path
         style="fill:#3f5f7f"
         d="m 5.1290078,1050.204 c -1.8199834,-1.3659 -5.56480119,-5.9792 -4.13754218,-5.0971 0.28357658,0.1753 0.50853718,-0.1542 0.50853718,-0.7447 0,-0.5859 -0.2256838,-0.9195 -0.50514363,-0.7468 -1.5965321,0.9867 2.77600423,-4.2529 4.48028263,-5.3687 1.1346475,-0.7429 1.928636,-1.1333 1.7644195,-0.8676 -0.1642165,0.2657 0.177982,0.4831 0.7604415,0.4831 0.5858785,0 0.9195365,-0.2257 0.746821,-0.5051 -0.986711,-1.5966 4.2528842,2.776 5.3687082,4.4802 0.742875,1.1347 1.133284,1.9287 0.867576,1.7645 -0.265708,-0.1643 -0.483105,0.1779 -0.483105,0.7604 0,0.5825 0.217397,0.9247 0.483105,0.7604 0.265708,-0.1642 -0.124701,0.6298 -0.867576,1.7645 -1.115824,1.7042 -6.3554192,6.0768 -5.3687082,4.4802 0.1727155,-0.2794 -0.1609425,-0.5051 -0.746821,-0.5051 -0.5824595,0 -0.9199595,0.225 -0.75,0.5 0.448524,0.7257 0.2308575,0.6069 -2.120995,-1.1582 z m 3.370995,-6.3418 c 0,-0.275 -0.225,-0.5 -0.5,-0.5 -0.275,0 -0.5,0.225 -0.5,0.5 0,0.275 0.225,0.5 0.5,0.5 0.275,0 0.5,-0.225 0.5,-0.5 z m 0.75,-3.2432 c 0,-1.103 -1.554449,-1.6524 -2.369501,-0.8373 -0.8403775,0.8404 -0.011466,2.1686 1.2422655,1.9906 0.7375875,-0.1048 1.1272355,-0.5034 1.1272355,-1.1533 z"
         id="path3351"
         inkscape:connector-curvature="0" />
      <path
         style="fill:#df0000"
         d="m 4.6492771,1049.8824 c -4.23993352,-2.5852 -4.06703873,-8.9857 0.3037845,-11.2459 5.8000854,-2.9994 11.9545554,3.521 8.5671834,9.0764 -1.864867,3.0585 -5.8247227,4.0269 -8.8709679,2.1695 z m 3.8507257,-6.0202 c 0,-0.275 -0.225,-0.5 -0.5,-0.5 -0.275,0 -0.5,0.225 -0.5,0.5 0,0.275 0.225,0.5 0.5,0.5 0.275,0 0.5,-0.225 0.5,-0.5 z m 1.0347835,-2.2919 c 0.8769927,-1.0567 0.002,-2.4581 -1.5347835,-2.4581 -1.5367835,0 -2.4117765,1.4014 -1.5347835,2.4581 0.3614755,0.4355 1.052128,0.7919 1.5347835,0.7919 0.4826555,0 1.173308,-0.3564 1.5347835,-0.7919 z"
         id="path3349"
         inkscape:connector-curvature="0" />
      <path
         style="fill:#9f3f00"
         d="m 4.6492771,1049.8824 c -4.23993352,-2.5852 -4.06703873,-8.9857 0.3037845,-11.2459 5.8000854,-2.9994 11.9545554,3.521 8.5671834,9.0764 -1.864867,3.0585 -5.8247227,4.0269 -8.8709679,2.1695 z m 5.0460147,-4.6435 c 0.4043112,-0.645 0.3838752,-1.1351 -0.078174,-1.875 -0.4888405,-0.7827 -0.494619,-1.2114 -0.026435,-1.9611 1.1878162,-1.902 -1.669844,-3.5026 -3.1243765,-1.75 -0.533213,0.6425 -0.536992,0.9814 -0.02017,1.8089 0.456148,0.7305 0.4829865,1.1714 0.094918,1.5594 -1.2597465,1.2598 -0.1147615,3.502 1.6520455,3.2353 0.525127,-0.079 1.2011135,-0.5372 1.5021925,-1.0175 z m -4.7786223,-1.3607 c -0.1074326,-0.3119 -0.4332201,-0.3119 -0.9166667,0 -0.6666666,0.4302 -0.6666666,0.5378 0,0.968 0.7690343,0.4962 1.2470665,-0.01 0.9166667,-0.968 z m 7.5833335,0.484 c 0,-0.2162 -0.3375,-0.5225 -0.75,-0.6808 -0.507609,-0.1948 -0.75,0.025 -0.75,0.6808 0,0.6556 0.242391,0.8756 0.75,0.6808 0.4125,-0.1583 0.75,-0.4646 0.75,-0.6808 z"
         id="path3347"
         inkscape:connector-curvature="0" />
      <path
         style="fill:#7f0000"
         d="m 4.6573601,1049.6304 c -4.25022385,-1.8486 -4.06489368,-8.739 0.2957015,-10.9939 5.6477324,-2.9206 11.6870654,3.1368 8.7637324,8.7899 -1.363928,2.6376 -5.6596817,3.6826 -9.0594339,2.204 z m 5.0379317,-4.3915 c 0.4043112,-0.645 0.3838752,-1.1351 -0.078174,-1.875 -0.4888405,-0.7827 -0.494619,-1.2114 -0.026435,-1.9611 1.1878162,-1.902 -1.669844,-3.5026 -3.1243765,-1.75 -0.533213,0.6425 -0.536992,0.9814 -0.02017,1.8089 0.456148,0.7305 0.4829865,1.1714 0.094918,1.5594 -1.2597465,1.2598 -0.1147615,3.502 1.6520455,3.2353 0.525127,-0.079 1.2011135,-0.5372 1.5021925,-1.0175 z m -4.7786223,-1.3607 c -0.1074326,-0.3119 -0.4332201,-0.3119 -0.9166667,0 -0.6666666,0.4302 -0.6666666,0.5378 0,0.968 0.7690343,0.4962 1.2470665,-0.01 0.9166667,-0.968 z m 7.5833335,0.484 c 0,-0.2162 -0.3375,-0.5225 -0.75,-0.6808 -0.507609,-0.1948 -0.75,0.025 -0.75,0.6808 0,0.6556 0.242391,0.8756 0.75,0.6808 0.4125,-0.1583 0.75,-0.4646 0.75,-0.6808 z"
         id="path3345"
         inkscape:connector-curvature="0" />
      <path
         style="fill:#5f1f00"
         d="m 4.6573601,1049.6304 c -4.25022385,-1.8486 -4.06489368,-8.739 0.2957015,-10.9939 5.6477324,-2.9206 11.6870654,3.1368 8.7637324,8.7899 -1.363928,2.6376 -5.6596817,3.6826 -9.0594339,2.204 z m 5.0379317,-4.3915 c 0.4043112,-0.645 0.3838752,-1.1351 -0.078174,-1.875 -0.4888405,-0.7827 -0.494619,-1.2114 -0.026435,-1.9611 1.1878162,-1.902 -1.669844,-3.5026 -3.1243765,-1.75 -0.533213,0.6425 -0.536992,0.9814 -0.02017,1.8089 0.456148,0.7305 0.4829865,1.1714 0.094918,1.5594 -1.2597465,1.2598 -0.1147615,3.502 1.6520455,3.2353 0.525127,-0.079 1.2011135,-0.5372 1.5021925,-1.0175 z m -4.695289,-0.8297 c 0,-1.3698 -0.07125,-1.4199 -1.246099,-0.875 -1.7567697,0.8149 -1.7317288,0.8655 1.121099,2.2666 0.06875,0.034 0.125,-0.5924 0.125,-1.3916 z m 8.4921982,-0.047 c 0,-0.1375 -0.560745,-0.5101 -1.246099,-0.828 -1.16972,-0.5425 -1.246099,-0.4917 -1.246099,0.828 0,1.3197 0.07638,1.3705 1.246099,0.828 0.685354,-0.3179 1.246099,-0.6905 1.246099,-0.828 z"
         id="path3343"
         inkscape:connector-curvature="0" />
      <path
         style="fill:#000000"
         d="m 5.6006348,1049.0309 c -1.3191395,-0.2808 -4.100632,-3.8545 -4.100632,-5.2685 0,-1.6034 1.4662758,-3.8943 3.1492743,-4.9204 3.2127862,-1.959 7.5593919,-0.6732 9.1746289,2.714 0.980295,2.0557 0.677738,3.5149 -1.179398,5.6879 -1.109026,1.2977 -1.855119,1.6727 -3.6445052,1.8317 -1.2375,0.11 -2.7672155,0.09 -3.399368,-0.045 z m 4.094657,-3.792 c 0.4043112,-0.645 0.3838752,-1.1351 -0.078174,-1.875 -0.4888405,-0.7827 -0.494619,-1.2114 -0.026435,-1.9611 1.1878162,-1.902 -1.669844,-3.5026 -3.1243765,-1.75 -0.533213,0.6425 -0.536992,0.9814 -0.02017,1.8089 0.456148,0.7305 0.4829865,1.1714 0.094918,1.5594 -1.2597465,1.2598 -0.1147615,3.502 1.6520455,3.2353 0.525127,-0.079 1.2011135,-0.5372 1.5021925,-1.0175 z m -4.695289,-0.8297 c 0,-1.3698 -0.07125,-1.4199 -1.246099,-0.875 -1.7567697,0.8149 -1.7317288,0.8655 1.121099,2.2666 0.06875,0.034 0.125,-0.5924 0.125,-1.3916 z m 8.4921982,-0.047 c 0,-0.1375 -0.560745,-0.5101 -1.246099,-0.828 -1.16972,-0.5425 -1.246099,-0.4917 -1.246099,0.828 0,1.3197 0.07638,1.3705 1.246099,0.828 0.685354,-0.3179 1.246099,-0.6905 1.246099,-0.828 z"
         id="path3341"
         inkscape:connector-curvature="0" />
    </g>
  </g>
</svg>
